<svg id="svg" version="1.1" xmlns="http://www.w3.org/2000/svg" xmlns:xlink="http://www.w3.org/1999/xlink" width="400" height="400" viewBox="0, 0, 400,400"><g id="svgg"><path id="path0" d="M210.400 117.040 C 206.086 117.338,199.839 118.664,194.200 120.480 C 185.855 123.167,176.886 128.496,170.527 134.547 C 168.647 136.336,166.980 137.850,166.824 137.910 C 166.556 138.014,165.785 136.459,162.206 128.600 C 161.404 126.840,160.355 124.547,159.874 123.504 L 159.000 121.608 139.600 121.704 L 120.200 121.800 120.200 202.400 L 120.200 283.000 147.900 283.103 L 175.600 283.205 175.607 237.703 C 175.615 188.299,175.577 189.243,177.842 181.600 C 183.896 161.177,214.288 157.303,221.781 176.000 C 224.399 182.531,224.385 182.203,224.393 235.103 L 224.400 283.205 252.100 283.103 L 279.800 283.000 279.800 229.800 C 279.800 171.429,279.899 174.134,277.377 163.400 C 273.194 145.591,262.373 131.063,247.800 123.693 C 242.598 121.061,238.271 119.486,233.400 118.449 C 232.300 118.214,230.516 117.828,229.435 117.589 C 227.422 117.145,214.347 116.768,210.400 117.040 " stroke="none" fill="#fbfbfb" fill-rule="evenodd"></path><path id="path1" d="M181.977 0.149 C 181.854 0.276,180.199 0.417,178.299 0.463 C 176.399 0.509,174.922 0.674,175.018 0.829 C 175.113 0.984,173.979 1.215,172.496 1.342 C 166.749 1.837,164.800 2.108,164.800 2.411 C 164.800 2.584,163.855 2.822,162.700 2.939 C 159.535 3.261,157.447 3.657,156.987 4.024 C 156.759 4.206,155.734 4.398,154.709 4.451 C 153.683 4.504,152.935 4.694,153.045 4.874 C 153.156 5.053,152.832 5.208,152.324 5.218 C 151.126 5.241,147.523 6.190,147.755 6.422 C 147.853 6.520,147.097 6.655,146.076 6.722 C 145.055 6.789,144.098 7.042,143.948 7.284 C 143.799 7.526,143.119 7.708,142.438 7.689 C 141.757 7.669,141.200 7.801,141.200 7.981 C 141.200 8.162,140.705 8.401,140.100 8.514 C 138.497 8.813,137.539 9.075,136.300 9.555 C 135.695 9.789,135.200 9.867,135.200 9.728 C 135.200 9.589,134.847 9.796,134.415 10.187 C 133.982 10.578,133.344 10.787,132.994 10.653 C 132.626 10.512,132.461 10.576,132.603 10.805 C 132.744 11.032,132.328 11.200,131.624 11.200 C 130.951 11.200,130.400 11.380,130.400 11.600 C 130.400 11.820,130.265 11.979,130.100 11.953 C 128.719 11.735,127.931 12.035,128.400 12.600 C 128.809 13.093,128.778 13.200,128.225 13.200 C 127.798 13.200,127.659 13.382,127.845 13.700 C 128.006 13.975,127.747 13.857,127.269 13.438 C 126.785 13.014,126.400 12.881,126.400 13.138 C 126.400 13.392,126.130 13.600,125.800 13.600 C 125.470 13.600,125.200 13.802,125.200 14.049 C 125.200 14.359,125.015 14.344,124.600 14.000 C 124.113 13.596,124.000 13.612,124.000 14.084 C 124.000 14.405,123.730 14.697,123.400 14.733 C 123.070 14.770,122.538 14.830,122.218 14.867 C 121.897 14.903,121.735 15.096,121.858 15.294 C 121.981 15.492,122.358 15.548,122.697 15.418 C 123.137 15.249,123.211 15.327,122.957 15.691 C 122.751 15.984,122.644 38.338,122.703 68.500 L 122.806 120.800 140.826 120.800 L 158.845 120.800 165.023 127.004 L 171.200 133.207 172.489 131.975 C 173.984 130.547,177.958 127.662,180.112 126.443 C 180.930 125.979,182.205 125.257,182.945 124.838 C 185.296 123.505,188.102 122.171,190.800 121.103 C 191.350 120.885,192.113 120.548,192.495 120.353 C 192.877 120.159,193.541 120.000,193.971 120.000 C 194.401 120.000,194.864 119.820,195.000 119.600 C 195.136 119.380,195.766 119.200,196.400 119.200 C 197.034 119.200,197.652 119.040,197.773 118.844 C 197.894 118.649,198.579 118.386,199.296 118.261 C 200.013 118.136,201.590 117.845,202.800 117.615 C 213.431 115.596,225.515 115.776,234.200 118.083 C 240.225 119.683,241.257 120.058,246.200 122.437 C 254.161 126.268,262.163 132.698,265.693 138.100 C 267.027 140.140,267.303 140.404,266.953 139.300 C 266.831 138.915,294.467 166.369,328.366 200.309 C 362.264 234.249,390.000 262.284,390.000 262.609 C 390.000 262.934,390.136 263.200,390.303 263.200 C 390.669 263.200,391.600 260.333,391.600 259.206 C 391.600 258.763,391.780 258.400,392.000 258.400 C 392.220 258.400,392.400 257.781,392.400 257.024 C 392.400 256.267,392.580 255.536,392.800 255.400 C 393.020 255.264,393.200 254.613,393.200 253.953 C 393.200 253.255,393.367 252.856,393.600 253.000 C 393.841 253.149,394.000 252.612,394.000 251.647 C 394.000 250.767,394.160 249.948,394.356 249.827 C 394.551 249.706,394.808 249.021,394.925 248.304 C 395.569 244.367,395.706 243.768,396.037 243.420 C 396.237 243.211,396.400 242.367,396.400 241.544 C 396.400 240.721,396.546 239.957,396.724 239.847 C 396.902 239.737,397.092 238.781,397.146 237.723 C 397.199 236.666,397.413 235.740,397.621 235.667 C 397.830 235.593,398.000 234.468,398.000 233.167 C 398.000 231.865,398.160 230.800,398.356 230.800 C 398.552 230.800,398.731 229.597,398.753 228.126 C 398.778 226.466,398.981 225.335,399.289 225.145 C 400.156 224.609,399.968 175.422,399.096 174.774 C 398.929 174.650,398.775 173.345,398.753 171.874 C 398.731 170.403,398.552 169.200,398.356 169.200 C 398.160 169.200,398.000 168.120,398.000 166.800 C 398.000 165.467,397.822 164.400,397.600 164.400 C 397.380 164.400,397.200 163.872,397.200 163.226 C 397.200 162.580,397.013 161.561,396.785 160.962 C 396.557 160.362,396.352 159.225,396.330 158.436 C 396.307 157.646,396.139 156.808,395.956 156.573 C 395.773 156.339,395.580 155.574,395.527 154.873 C 395.473 154.173,395.288 153.600,395.115 153.600 C 394.942 153.600,394.800 152.891,394.800 152.024 C 394.800 151.157,394.620 150.336,394.400 150.200 C 394.180 150.064,394.000 149.233,394.000 148.353 C 394.000 147.388,393.841 146.851,393.600 147.000 C 393.363 147.147,393.200 146.682,393.200 145.857 C 393.200 145.092,393.057 144.407,392.882 144.333 C 392.608 144.218,391.616 140.749,390.959 137.609 C 390.844 137.063,390.556 136.496,390.317 136.349 C 390.079 136.201,389.992 135.798,390.124 135.453 C 390.257 135.108,390.165 134.702,389.921 134.551 C 389.633 134.373,389.590 134.461,389.800 134.800 C 389.992 135.110,389.966 135.226,389.737 135.085 C 389.525 134.954,389.389 134.302,389.435 133.637 C 389.485 132.906,389.337 132.461,389.059 132.514 C 388.807 132.561,388.598 132.240,388.595 131.800 C 388.587 130.634,387.123 126.286,386.536 125.688 C 386.260 125.407,386.136 124.912,386.260 124.588 C 386.384 124.265,386.286 124.000,386.043 124.000 C 385.799 124.000,385.600 123.640,385.600 123.200 C 385.600 122.760,385.450 122.400,385.267 122.400 C 385.083 122.400,384.913 122.175,384.888 121.900 C 384.800 120.925,383.800 118.400,383.502 118.400 C 383.336 118.400,383.200 118.132,383.200 117.805 C 383.200 117.477,382.897 116.855,382.526 116.422 C 381.900 115.691,381.616 114.931,381.510 113.700 C 381.486 113.425,381.317 113.200,381.133 113.200 C 380.950 113.200,380.800 112.840,380.800 112.400 C 380.800 111.960,380.620 111.600,380.400 111.600 C 380.180 111.600,380.000 111.240,380.000 110.800 C 380.000 110.360,379.820 110.000,379.600 110.000 C 379.380 110.000,379.200 109.655,379.200 109.233 C 379.200 108.812,379.033 108.407,378.830 108.333 C 378.626 108.260,378.401 107.930,378.330 107.600 C 378.258 107.270,377.885 106.709,377.500 106.353 C 377.115 105.997,376.800 105.523,376.800 105.299 C 376.800 104.580,375.731 102.803,375.461 103.073 C 375.317 103.216,375.200 102.853,375.200 102.267 C 375.200 101.680,375.020 101.200,374.800 101.200 C 374.580 101.200,374.400 100.913,374.400 100.562 C 374.400 99.908,372.880 97.506,372.314 97.267 C 372.142 97.193,372.000 96.795,372.000 96.382 C 372.000 95.969,371.662 95.309,371.250 94.916 C 370.837 94.522,370.375 93.795,370.223 93.300 C 370.071 92.805,369.778 92.400,369.573 92.400 C 369.368 92.400,369.200 92.207,369.200 91.971 C 369.200 91.736,368.928 91.271,368.596 90.939 C 368.264 90.607,368.095 90.170,368.220 89.968 C 368.345 89.765,368.179 89.600,367.851 89.600 C 367.298 89.600,366.539 88.189,366.721 87.500 C 366.764 87.335,366.519 87.200,366.176 87.200 C 365.833 87.200,365.655 87.035,365.779 86.834 C 365.903 86.633,365.858 86.408,365.679 86.334 C 365.257 86.160,362.800 82.561,362.800 82.116 C 362.800 81.929,362.440 81.517,362.000 81.200 C 361.560 80.883,361.200 80.393,361.200 80.112 C 361.200 79.830,361.020 79.600,360.800 79.600 C 360.580 79.600,360.400 79.330,360.400 79.000 C 360.400 78.670,360.265 78.445,360.100 78.500 C 359.935 78.555,359.792 78.510,359.782 78.400 C 359.759 78.148,358.485 76.595,357.282 75.350 C 356.777 74.827,356.489 74.400,356.643 74.400 C 356.797 74.400,356.507 74.040,356.000 73.600 C 355.493 73.160,355.240 72.794,355.439 72.787 C 355.637 72.779,355.375 72.419,354.856 71.987 C 354.336 71.554,354.013 71.200,354.137 71.200 C 354.261 71.200,353.470 70.309,352.381 69.219 C 351.291 68.130,350.400 67.073,350.400 66.871 C 350.400 66.669,348.870 64.953,347.000 63.058 C 345.130 61.162,343.600 59.686,343.600 59.778 C 343.600 59.869,342.829 59.191,341.886 58.272 C 340.943 57.352,340.201 56.548,340.236 56.484 C 340.383 56.214,337.774 53.735,337.500 53.884 C 337.335 53.974,337.200 53.853,337.200 53.617 C 337.200 53.131,334.500 50.400,334.020 50.400 C 333.848 50.400,332.387 49.140,330.772 47.600 C 329.157 46.060,327.685 44.800,327.501 44.800 C 327.165 44.800,326.971 44.653,324.864 42.800 C 322.806 40.990,321.996 40.400,321.572 40.400 C 321.341 40.400,321.264 40.220,321.400 40.000 C 321.536 39.780,321.367 39.600,321.024 39.600 C 320.681 39.600,320.400 39.420,320.400 39.200 C 320.400 38.980,320.130 38.800,319.800 38.800 C 319.470 38.800,319.200 38.659,319.200 38.486 C 319.200 38.314,318.705 37.879,318.100 37.521 C 317.495 37.163,316.460 36.404,315.800 35.835 C 315.140 35.266,314.375 34.801,314.100 34.800 C 313.825 34.800,313.600 34.650,313.600 34.468 C 313.600 34.285,313.105 33.881,312.500 33.570 C 311.895 33.260,311.130 32.734,310.800 32.403 C 310.470 32.071,309.930 31.741,309.600 31.670 C 309.270 31.598,308.940 31.373,308.867 31.170 C 308.793 30.966,308.561 30.800,308.350 30.800 C 308.139 30.800,307.580 30.440,307.108 30.000 C 306.636 29.560,306.013 29.200,305.725 29.200 C 305.436 29.200,305.200 29.020,305.200 28.800 C 305.200 28.580,304.930 28.400,304.600 28.400 C 304.270 28.400,304.000 28.209,304.000 27.976 C 304.000 27.743,303.863 27.638,303.695 27.742 C 303.527 27.845,302.620 27.406,301.680 26.765 C 300.741 26.124,299.708 25.600,299.386 25.600 C 299.064 25.600,298.800 25.420,298.800 25.200 C 298.800 24.980,298.455 24.800,298.033 24.800 C 297.612 24.800,297.207 24.665,297.133 24.500 C 296.959 24.108,295.298 23.154,291.600 21.322 C 289.950 20.505,288.510 19.738,288.400 19.618 C 287.910 19.084,286.340 18.400,285.605 18.400 C 285.162 18.400,284.800 18.220,284.800 18.000 C 284.800 17.780,284.440 17.600,284.000 17.600 C 283.560 17.600,283.200 17.420,283.200 17.200 C 283.200 16.980,282.928 16.800,282.595 16.800 C 282.039 16.800,280.478 16.078,280.000 15.600 C 279.890 15.490,279.530 15.350,279.200 15.289 C 278.596 15.176,277.190 14.607,275.905 13.953 C 275.523 13.759,274.938 13.600,274.605 13.600 C 274.272 13.600,274.000 13.420,274.000 13.200 C 274.000 12.980,273.550 12.800,273.000 12.800 C 272.450 12.800,272.000 12.620,272.000 12.400 C 272.000 12.180,271.638 12.000,271.196 12.000 C 270.753 12.000,269.628 11.655,268.696 11.232 C 267.024 10.475,265.097 9.823,264.898 9.946 C 264.842 9.981,264.148 9.738,263.356 9.407 C 262.563 9.076,261.754 8.905,261.558 9.026 C 261.361 9.148,261.200 9.057,261.200 8.824 C 261.200 8.591,260.559 8.400,259.776 8.400 C 258.993 8.400,258.441 8.257,258.549 8.083 C 258.656 7.909,258.175 7.723,257.479 7.669 C 256.783 7.616,256.039 7.399,255.827 7.187 C 255.614 6.974,254.835 6.800,254.096 6.800 C 253.303 6.800,252.854 6.636,253.000 6.400 C 253.150 6.158,252.596 6.000,251.600 6.000 C 250.604 6.000,250.050 5.842,250.200 5.600 C 250.351 5.355,249.730 5.200,248.600 5.200 C 247.584 5.200,246.843 5.055,246.953 4.877 C 247.062 4.699,246.398 4.509,245.476 4.455 C 244.554 4.401,243.629 4.187,243.420 3.979 C 243.211 3.770,242.255 3.600,241.296 3.600 C 240.337 3.600,239.644 3.453,239.755 3.274 C 239.865 3.094,239.111 2.904,238.078 2.851 C 237.045 2.798,236.029 2.585,235.820 2.378 C 235.611 2.170,234.407 2.000,233.144 2.000 C 231.881 2.000,230.736 1.820,230.600 1.600 C 230.464 1.380,229.193 1.200,227.776 1.200 C 226.359 1.200,225.200 1.050,225.200 0.867 C 225.200 0.326,182.492 -0.383,181.977 0.149 M119.865 15.776 C 119.736 16.112,119.377 16.289,119.067 16.170 C 118.757 16.051,118.391 16.246,118.254 16.602 C 118.118 16.959,117.812 17.131,117.576 16.985 C 117.129 16.709,116.035 17.870,116.013 18.644 C 116.003 18.968,116.438 18.972,117.610 18.659 C 118.710 18.365,119.153 18.055,119.009 17.680 C 118.893 17.377,119.204 16.801,119.699 16.399 C 120.195 15.998,120.487 15.556,120.349 15.417 C 120.212 15.279,119.993 15.440,119.865 15.776 M102.658 24.593 C 102.528 24.931,102.165 25.085,101.815 24.950 C 101.477 24.821,101.200 24.804,101.200 24.914 C 101.200 25.529,102.426 25.434,103.024 24.773 C 103.409 24.348,103.535 24.000,103.305 24.000 C 103.074 24.000,102.783 24.267,102.658 24.593 M65.438 50.600 C 64.799 51.150,64.439 51.600,64.638 51.600 C 64.837 51.599,65.523 51.149,66.162 50.600 C 66.801 50.050,67.161 49.600,66.962 49.600 C 66.763 49.601,66.077 50.051,65.438 50.600 M280.114 182.600 C 280.117 183.700,280.195 184.103,280.287 183.495 C 280.379 182.886,280.377 181.986,280.282 181.495 C 280.187 181.003,280.111 181.500,280.114 182.600 M175.709 198.800 C 175.709 199.790,175.787 200.195,175.882 199.700 C 175.978 199.205,175.978 198.395,175.882 197.900 C 175.787 197.405,175.709 197.810,175.709 198.800 M389.067 266.267 C 388.697 266.637,388.732 267.600,389.115 267.600 C 389.288 267.600,389.457 267.240,389.490 266.800 C 389.555 265.940,389.483 265.850,389.067 266.267 M280.568 275.000 C 280.568 279.400,280.626 281.255,280.698 279.121 C 280.770 276.988,280.770 273.388,280.699 271.121 C 280.627 268.855,280.568 270.600,280.568 275.000 M387.550 268.551 C 387.523 268.908,387.455 269.380,387.400 269.600 C 387.345 269.820,387.278 270.210,387.250 270.467 C 387.223 270.723,387.083 270.816,386.939 270.673 C 386.424 270.157,385.556 272.465,386.045 273.054 C 386.396 273.477,386.352 273.600,385.849 273.600 C 385.395 273.600,385.200 273.240,385.200 272.400 C 385.200 270.648,385.019 270.766,380.021 275.779 C 375.373 280.441,374.801 280.779,374.798 278.876 C 374.797 277.921,374.262 278.350,370.050 282.685 C 365.121 287.758,364.800 287.945,364.800 285.733 C 364.800 283.907,364.793 283.912,360.697 288.200 C 356.800 292.280,356.400 292.541,356.400 291.000 C 356.400 289.493,356.096 289.687,352.000 293.800 C 347.455 298.364,347.600 298.338,347.600 294.600 C 347.600 290.890,347.746 290.873,343.508 295.092 C 340.385 298.200,340.000 298.471,340.000 297.558 C 340.000 295.727,339.534 295.963,335.989 299.589 C 332.318 303.345,332.000 303.484,332.000 301.333 C 332.000 299.521,331.929 299.559,328.493 303.185 C 325.389 306.460,324.800 306.731,324.800 304.883 C 324.800 303.923,324.358 304.254,320.493 308.107 C 315.676 312.909,315.600 312.954,315.600 311.000 C 315.600 309.076,315.480 309.138,311.508 313.092 L 308.000 316.583 308.000 315.010 L 308.000 313.438 306.400 315.000 L 304.800 316.562 304.800 315.148 C 304.800 312.894,304.553 313.020,300.000 317.600 C 295.608 322.018,295.200 322.259,295.200 320.440 C 295.200 319.545,294.595 320.016,290.494 324.106 C 285.432 329.155,285.200 329.317,285.200 327.800 C 285.200 326.272,284.921 326.465,280.021 331.379 C 275.198 336.216,274.800 336.422,274.800 334.085 L 274.800 332.618 271.400 336.000 C 268.001 339.382,268.000 339.382,268.000 338.091 C 268.000 336.278,267.794 336.386,264.000 340.200 C 260.173 344.047,260.000 344.134,260.000 342.200 C 260.000 340.322,260.013 340.315,256.189 344.200 C 252.386 348.063,252.400 348.055,252.400 346.309 L 252.400 345.018 249.079 348.321 C 245.390 351.991,245.200 352.017,245.200 348.840 L 245.200 346.613 240.494 351.306 C 235.432 356.355,235.200 356.517,235.200 355.000 C 235.200 353.472,234.921 353.665,230.021 358.579 C 225.207 363.406,224.800 363.619,224.800 361.310 L 224.800 359.868 220.049 364.717 C 215.304 369.560,214.800 369.888,214.800 368.133 C 214.800 366.800,214.582 366.918,212.021 369.644 L 209.724 372.088 204.362 366.947 C 194.392 357.388,180.731 343.909,150.414 313.717 C 133.800 297.171,120.059 283.781,119.880 283.960 C 119.700 284.140,120.284 285.047,121.177 285.976 L 122.800 287.665 122.800 335.433 L 122.800 383.200 121.400 383.200 C 120.600 383.200,120.000 383.000,120.000 382.733 C 120.000 382.477,119.883 382.384,119.740 382.527 C 119.596 382.670,119.234 382.475,118.934 382.094 C 118.634 381.712,118.436 381.580,118.494 381.800 C 118.552 382.020,118.465 382.245,118.300 382.300 C 117.528 382.557,117.291 382.328,117.472 381.500 C 117.592 380.955,117.537 380.783,117.334 381.063 C 116.961 381.578,114.689 381.303,115.011 380.782 C 115.122 380.602,115.030 380.342,114.807 380.204 C 114.583 380.066,114.400 380.206,114.400 380.514 C 114.400 381.193,115.904 382.629,116.252 382.282 C 116.388 382.146,117.096 382.490,117.825 383.047 C 118.592 383.631,119.542 384.004,120.076 383.929 C 120.652 383.849,120.962 383.988,120.900 384.300 C 120.845 384.575,120.935 384.814,121.100 384.831 C 121.265 384.847,121.760 384.948,122.200 385.054 C 122.640 385.160,123.225 385.266,123.500 385.290 C 123.775 385.314,124.014 385.618,124.032 385.967 C 124.054 386.422,124.123 386.451,124.275 386.071 C 124.432 385.678,124.749 385.781,125.508 386.471 C 126.069 386.982,126.399 387.175,126.241 386.900 C 125.725 386.005,127.123 386.357,127.827 387.300 C 128.329 387.973,128.436 388.015,128.249 387.467 C 128.082 386.976,128.165 386.794,128.500 386.917 C 128.775 387.017,128.961 387.283,128.914 387.507 C 128.867 387.731,129.182 388.007,129.615 388.120 C 130.047 388.233,130.300 388.162,130.177 387.963 C 130.054 387.763,130.233 387.600,130.576 387.600 C 130.919 387.600,131.200 387.889,131.200 388.243 C 131.200 388.659,131.418 388.802,131.821 388.647 C 132.216 388.496,132.341 388.572,132.165 388.856 C 131.999 389.125,132.109 389.230,132.441 389.120 C 132.744 389.019,133.246 389.188,133.555 389.497 C 134.017 389.960,134.176 389.966,134.452 389.530 C 134.698 389.141,134.791 389.213,134.800 389.800 C 134.810 390.464,134.878 390.498,135.200 390.000 C 135.413 389.670,135.591 389.606,135.594 389.857 C 135.597 390.109,135.879 390.422,136.221 390.553 C 136.640 390.714,136.748 390.630,136.552 390.295 C 136.393 390.023,136.653 390.143,137.131 390.562 C 137.609 390.981,138.000 391.170,138.000 390.982 C 138.000 390.794,138.216 390.856,138.480 391.120 C 138.744 391.384,139.554 391.600,140.280 391.600 C 141.006 391.600,141.600 391.780,141.600 392.000 C 141.600 392.220,142.129 392.400,142.776 392.400 C 143.423 392.400,144.064 392.580,144.200 392.800 C 144.336 393.020,145.077 393.200,145.847 393.200 C 146.617 393.200,147.165 393.335,147.064 393.500 C 146.964 393.665,147.628 393.844,148.540 393.898 C 149.452 393.952,150.259 394.177,150.333 394.398 C 150.406 394.619,151.071 394.800,151.810 394.800 C 152.548 394.800,153.252 394.961,153.374 395.158 C 153.495 395.355,154.271 395.613,155.097 395.732 C 155.924 395.851,157.500 396.155,158.600 396.408 C 159.700 396.662,161.545 396.960,162.700 397.071 C 163.855 397.183,164.800 397.437,164.800 397.637 C 164.800 397.837,165.891 398.000,167.224 398.000 C 168.557 398.000,169.553 398.152,169.439 398.337 C 169.324 398.523,170.425 398.714,171.885 398.761 C 173.345 398.808,174.824 398.991,175.170 399.168 C 177.042 400.124,225.200 400.080,225.200 399.123 C 225.200 398.946,226.460 398.800,228.000 398.800 C 229.600 398.800,230.800 398.629,230.800 398.400 C 230.800 398.178,231.856 398.000,233.167 398.000 C 234.468 398.000,235.593 397.830,235.667 397.622 C 235.740 397.414,236.736 397.203,237.880 397.152 C 239.024 397.101,239.868 396.911,239.756 396.729 C 239.644 396.548,240.247 396.400,241.096 396.400 C 241.945 396.400,242.811 396.238,243.020 396.041 C 243.373 395.708,244.182 395.552,248.699 394.947 C 249.633 394.822,250.297 394.558,250.175 394.360 C 250.053 394.162,250.583 394.000,251.353 394.000 C 252.123 394.000,252.864 393.820,253.000 393.600 C 253.136 393.380,253.766 393.200,254.400 393.200 C 255.034 393.200,255.664 393.020,255.800 392.800 C 255.936 392.580,256.562 392.400,257.190 392.400 C 257.819 392.400,258.393 392.226,258.467 392.013 C 258.540 391.800,259.185 391.581,259.900 391.528 C 260.615 391.474,261.200 391.277,261.200 391.091 C 261.200 390.905,261.361 390.852,261.558 390.974 C 261.754 391.095,262.564 390.923,263.358 390.592 C 264.151 390.260,264.800 390.104,264.800 390.244 C 264.800 390.384,265.039 390.299,265.331 390.057 C 265.624 389.814,266.209 389.550,266.631 389.469 C 267.054 389.388,267.940 389.100,268.600 388.828 C 269.260 388.556,270.610 388.067,271.600 387.741 C 272.590 387.415,274.210 386.769,275.200 386.305 C 277.481 385.236,278.446 384.851,279.200 384.711 C 279.530 384.650,279.890 384.510,280.000 384.400 C 280.478 383.922,282.039 383.200,282.595 383.200 C 282.928 383.200,283.200 383.020,283.200 382.800 C 283.200 382.580,283.560 382.400,284.000 382.400 C 284.440 382.400,284.800 382.220,284.800 382.000 C 284.800 381.780,285.250 381.600,285.800 381.600 C 286.350 381.600,286.800 381.420,286.800 381.200 C 286.800 380.980,287.160 380.800,287.600 380.800 C 288.040 380.800,288.400 380.620,288.400 380.400 C 288.400 380.180,288.760 380.000,289.200 380.000 C 289.640 380.000,290.000 379.820,290.000 379.600 C 290.000 379.380,290.360 379.200,290.800 379.200 C 291.240 379.200,291.600 379.040,291.600 378.843 C 291.600 378.647,292.275 378.203,293.100 377.855 C 294.642 377.206,296.845 375.978,297.200 375.570 C 297.310 375.444,298.493 374.799,299.830 374.137 C 301.166 373.476,302.516 372.772,302.830 372.573 C 303.143 372.375,303.490 372.209,303.600 372.205 C 303.710 372.201,304.447 371.703,305.238 371.099 C 306.029 370.494,306.884 370.000,307.138 370.000 C 307.392 370.000,307.600 369.820,307.600 369.600 C 307.600 369.380,307.870 369.200,308.200 369.200 C 308.530 369.200,308.800 369.020,308.800 368.800 C 308.800 368.580,309.036 368.400,309.325 368.400 C 309.613 368.400,310.231 368.044,310.699 367.609 C 311.166 367.173,311.767 366.768,312.035 366.709 C 312.303 366.649,312.990 366.147,313.561 365.592 C 314.133 365.038,315.095 364.333,315.700 364.025 C 316.305 363.717,316.800 363.315,316.800 363.132 C 316.800 362.950,317.171 362.800,317.624 362.800 C 318.077 362.800,318.336 362.620,318.200 362.400 C 318.064 362.180,318.233 362.000,318.576 362.000 C 318.919 362.000,319.200 361.820,319.200 361.600 C 319.200 361.380,319.470 361.200,319.800 361.200 C 320.130 361.200,320.400 361.020,320.400 360.800 C 320.400 360.580,320.681 360.400,321.024 360.400 C 321.367 360.400,321.536 360.220,321.400 360.000 C 321.264 359.780,321.335 359.600,321.558 359.600 C 321.781 359.600,322.442 359.170,323.027 358.645 C 324.985 356.888,325.600 356.399,325.600 356.596 C 325.600 356.807,326.858 355.837,328.060 354.700 C 328.467 354.315,328.800 354.095,328.800 354.211 C 328.800 354.326,329.586 353.651,330.546 352.711 C 332.839 350.463,333.916 349.600,334.428 349.600 C 334.659 349.600,334.736 349.420,334.600 349.200 C 334.464 348.980,334.528 348.800,334.741 348.800 C 334.955 348.800,336.311 347.630,337.755 346.200 C 339.199 344.770,340.308 343.600,340.219 343.600 C 340.129 343.600,340.809 342.829,341.728 341.886 C 342.648 340.943,343.458 340.206,343.528 340.248 C 343.768 340.389,348.800 335.132,348.800 334.741 C 348.800 334.528,348.953 334.447,349.140 334.563 C 349.327 334.678,349.732 334.284,350.040 333.686 C 350.348 333.089,351.446 331.745,352.481 330.700 C 353.515 329.655,354.256 328.800,354.126 328.800 C 353.997 328.800,354.363 328.328,354.939 327.752 C 355.516 327.175,355.890 326.545,355.770 326.352 C 355.651 326.158,355.863 326.000,356.243 326.000 C 356.623 326.000,356.824 325.891,356.691 325.758 C 356.558 325.624,356.843 325.107,357.324 324.608 C 358.798 323.081,359.600 322.011,359.600 321.572 C 359.600 321.341,359.780 321.264,360.000 321.400 C 360.220 321.536,360.400 321.367,360.400 321.024 C 360.400 320.681,360.580 320.400,360.800 320.400 C 361.020 320.400,361.200 320.130,361.200 319.800 C 361.200 319.470,361.380 319.200,361.600 319.200 C 361.820 319.200,362.000 318.919,362.000 318.576 C 362.000 318.233,362.180 318.064,362.400 318.200 C 362.620 318.336,362.800 318.110,362.800 317.698 C 362.800 317.287,363.340 316.432,364.000 315.800 C 364.660 315.168,365.200 314.480,365.200 314.272 C 365.200 314.064,365.515 313.603,365.900 313.247 C 366.285 312.891,366.658 312.330,366.730 312.000 C 366.801 311.670,367.026 311.340,367.230 311.267 C 367.433 311.193,367.600 310.878,367.600 310.567 C 367.600 310.255,367.780 310.000,368.000 310.000 C 368.220 310.000,368.400 309.730,368.400 309.400 C 368.400 309.070,368.580 308.800,368.800 308.800 C 369.020 308.800,369.200 308.530,369.200 308.200 C 369.200 307.870,369.395 307.600,369.633 307.600 C 369.872 307.600,369.997 307.391,369.912 307.136 C 369.827 306.880,370.192 306.205,370.723 305.636 C 371.254 305.066,371.851 304.240,372.049 303.800 C 372.248 303.360,372.776 302.393,373.224 301.652 C 373.671 300.911,373.950 300.216,373.843 300.109 C 373.736 300.002,373.997 299.540,374.424 299.082 C 374.851 298.624,375.200 298.013,375.200 297.725 C 375.200 297.436,375.335 297.199,375.500 297.197 C 375.837 297.193,376.800 295.275,376.800 294.609 C 376.800 294.371,377.150 293.924,377.579 293.615 C 378.007 293.307,378.275 292.922,378.175 292.759 C 378.075 292.597,378.276 292.181,378.622 291.835 C 378.968 291.489,379.138 291.023,379.000 290.800 C 378.862 290.577,379.031 290.286,379.375 290.154 C 379.719 290.022,380.000 289.574,380.000 289.157 C 380.000 288.741,380.191 288.400,380.424 288.400 C 380.657 288.400,380.745 288.235,380.620 288.032 C 380.495 287.830,380.656 287.401,380.977 287.080 C 381.299 286.758,381.452 286.385,381.317 286.250 C 381.182 286.115,381.343 285.689,381.675 285.302 C 382.007 284.916,382.508 283.748,382.789 282.707 C 383.070 281.666,383.457 280.912,383.650 281.031 C 383.842 281.150,384.000 280.967,384.000 280.624 C 384.000 280.281,384.164 280.000,384.365 280.000 C 384.565 280.000,384.678 279.685,384.616 279.300 C 384.554 278.915,384.682 278.375,384.900 278.100 C 385.119 277.825,385.164 277.600,385.000 277.600 C 384.836 277.600,384.920 277.338,385.185 277.018 C 385.451 276.697,385.554 276.249,385.414 276.022 C 385.258 275.770,385.418 275.709,385.825 275.865 C 386.354 276.068,386.439 275.952,386.234 275.308 C 386.069 274.789,386.178 274.417,386.535 274.280 C 387.128 274.053,387.707 272.000,387.178 272.000 C 387.007 272.000,386.786 272.225,386.688 272.500 C 386.590 272.775,386.369 272.869,386.198 272.710 C 385.770 272.311,386.816 271.120,387.397 271.344 C 387.656 271.443,387.874 271.316,387.882 271.062 C 387.910 270.244,388.191 269.406,388.519 269.165 C 388.694 269.035,388.559 268.698,388.219 268.416 C 387.704 267.989,387.592 268.011,387.550 268.551 M254.727 283.900 C 259.417 283.964,266.977 283.964,271.527 283.899 C 276.077 283.835,272.240 283.783,263.000 283.783 C 253.760 283.783,250.037 283.836,254.727 283.900 " stroke="none" fill="#0aa9e7" fill-rule="evenodd"></path><path id="path2" d="M127.281 12.741 C 126.873 13.000,126.911 13.191,127.458 13.635 C 127.907 14.000,128.047 14.023,127.853 13.700 C 127.662 13.382,127.789 13.200,128.200 13.200 C 128.556 13.200,128.736 13.020,128.600 12.800 C 128.302 12.318,127.971 12.304,127.281 12.741 M120.479 15.830 C 120.053 16.128,119.563 16.243,119.388 16.086 C 119.214 15.929,119.201 16.025,119.359 16.300 C 119.518 16.575,119.444 16.800,119.197 16.800 C 118.945 16.800,118.847 17.117,118.974 17.517 C 119.154 18.087,118.872 18.322,117.601 18.662 C 116.334 19.000,116.000 18.980,116.000 18.568 C 116.000 17.844,116.693 17.486,116.911 18.098 C 117.010 18.374,117.245 18.455,117.434 18.278 C 117.959 17.786,116.873 17.297,115.735 17.514 C 115.163 17.624,114.392 18.250,113.963 18.954 C 113.348 19.962,113.202 20.047,113.195 19.400 C 113.190 18.808,113.100 18.739,112.849 19.134 C 112.663 19.428,112.439 19.608,112.352 19.534 C 111.921 19.171,108.494 20.980,108.683 21.471 C 108.822 21.835,108.680 21.929,108.245 21.762 C 107.848 21.610,107.598 21.723,107.594 22.057 C 107.589 22.476,107.499 22.463,107.200 22.000 C 106.863 21.479,106.811 21.487,106.806 22.057 C 106.803 22.419,106.521 22.822,106.179 22.953 C 105.823 23.089,105.663 23.022,105.803 22.795 C 106.476 21.706,105.037 22.677,103.359 24.443 C 102.716 25.120,102.023 25.449,101.384 25.379 C 100.843 25.319,100.400 25.445,100.400 25.659 C 100.400 25.872,100.220 25.936,100.000 25.800 C 99.780 25.664,99.600 25.754,99.600 26.000 C 99.600 26.246,99.419 26.335,99.197 26.198 C 98.976 26.061,98.696 26.206,98.575 26.520 C 98.455 26.834,97.378 27.586,96.183 28.191 C 94.987 28.796,94.089 29.420,94.187 29.579 C 94.285 29.737,94.103 29.897,93.782 29.933 C 93.462 29.970,92.938 30.030,92.618 30.067 C 92.297 30.103,92.128 30.283,92.241 30.467 C 92.355 30.650,92.167 30.800,91.824 30.800 C 91.481 30.800,91.200 31.081,91.200 31.424 C 91.200 31.767,91.020 31.936,90.800 31.800 C 90.580 31.664,90.397 31.788,90.394 32.076 C 90.390 32.447,90.302 32.467,90.094 32.144 C 89.881 31.814,89.658 31.842,89.284 32.244 C 89.001 32.550,88.911 32.818,89.084 32.840 C 89.258 32.862,88.950 33.013,88.400 33.175 C 87.850 33.338,87.443 33.673,87.495 33.921 C 87.548 34.169,87.324 34.269,86.995 34.143 C 86.668 34.017,86.400 34.114,86.400 34.357 C 86.400 34.601,86.136 34.800,85.813 34.800 C 85.491 34.800,84.609 35.418,83.853 36.173 C 83.098 36.929,82.381 37.447,82.259 37.326 C 82.138 37.204,81.768 37.375,81.438 37.705 C 81.108 38.035,80.950 38.416,81.086 38.552 C 81.338 38.804,80.610 38.949,79.694 38.828 C 79.415 38.792,79.235 38.906,79.294 39.081 C 79.458 39.573,77.678 41.200,76.976 41.200 C 76.633 41.200,76.464 41.380,76.600 41.600 C 76.736 41.820,76.556 42.000,76.200 42.000 C 75.808 42.000,75.667 42.184,75.842 42.468 C 76.036 42.783,75.913 42.852,75.466 42.681 C 75.024 42.511,74.800 42.631,74.800 43.036 C 74.800 43.372,74.620 43.536,74.400 43.400 C 74.180 43.264,74.000 43.433,74.000 43.776 C 74.000 44.119,73.865 44.371,73.700 44.336 C 72.958 44.179,70.733 45.603,70.795 46.195 C 70.808 46.318,70.364 46.872,69.809 47.427 C 69.254 47.982,68.800 48.334,68.800 48.209 C 68.800 48.084,68.352 48.275,67.803 48.635 C 67.255 48.994,66.925 49.478,67.069 49.712 C 67.231 49.974,67.085 50.042,66.686 49.888 C 66.233 49.714,66.107 49.813,66.263 50.220 C 66.386 50.539,66.326 50.800,66.132 50.800 C 65.937 50.800,65.231 51.295,64.562 51.900 C 63.894 52.505,62.874 53.350,62.297 53.777 C 61.720 54.204,61.338 54.699,61.448 54.877 C 61.557 55.055,61.483 55.200,61.283 55.200 C 60.970 55.200,60.322 55.785,58.200 57.978 C 57.980 58.206,57.035 59.121,56.100 60.011 C 55.165 60.902,54.400 61.815,54.400 62.039 C 54.400 62.264,54.265 62.370,54.100 62.276 C 53.935 62.182,53.389 62.532,52.886 63.053 C 52.383 63.574,52.071 64.000,52.191 64.000 C 52.312 64.000,51.553 64.884,50.505 65.965 C 47.946 68.605,46.000 70.903,46.000 71.286 C 46.000 71.459,45.733 71.600,45.408 71.600 C 45.082 71.600,44.706 72.037,44.572 72.571 C 44.437 73.105,43.911 73.855,43.402 74.237 C 42.855 74.648,42.570 75.178,42.706 75.532 C 42.856 75.922,42.772 76.030,42.468 75.842 C 42.163 75.653,41.998 75.874,41.994 76.476 C 41.989 77.219,41.912 77.283,41.600 76.800 C 41.269 76.287,41.211 76.302,41.206 76.900 C 41.200 77.647,39.602 79.467,39.100 79.300 C 38.935 79.245,38.800 79.680,38.800 80.267 C 38.800 80.853,38.689 81.222,38.552 81.086 C 38.249 80.782,37.200 81.779,37.200 82.371 C 37.200 82.607,37.064 82.800,36.898 82.800 C 36.731 82.800,36.356 83.341,36.063 84.002 C 35.765 84.675,35.343 85.088,35.104 84.940 C 34.869 84.795,34.790 84.861,34.930 85.086 C 35.069 85.311,34.737 86.014,34.192 86.648 C 33.647 87.282,33.201 88.025,33.200 88.300 C 33.200 88.575,33.020 88.800,32.800 88.800 C 32.580 88.800,32.400 89.070,32.400 89.400 C 32.400 89.730,32.220 90.000,32.000 90.000 C 31.780 90.000,31.600 90.268,31.600 90.597 C 31.600 90.925,31.240 91.418,30.800 91.693 C 30.360 91.968,30.000 92.509,30.000 92.896 C 30.000 93.283,29.865 93.600,29.699 93.600 C 29.534 93.600,28.961 94.455,28.426 95.500 C 27.892 96.545,27.228 97.592,26.952 97.826 C 26.675 98.060,26.393 98.506,26.325 98.817 C 26.256 99.127,25.973 99.625,25.696 99.923 C 25.419 100.221,25.295 100.630,25.420 100.832 C 25.545 101.035,25.457 101.200,25.224 101.200 C 24.991 101.200,24.800 101.560,24.800 102.000 C 24.800 102.440,24.652 102.800,24.471 102.800 C 24.291 102.800,23.736 103.700,23.239 104.800 C 22.742 105.900,22.169 106.800,21.967 106.800 C 21.765 106.800,21.600 107.160,21.600 107.600 C 21.600 108.040,21.464 108.400,21.298 108.400 C 21.000 108.400,20.823 108.752,19.253 112.456 C 18.820 113.477,18.271 114.432,18.033 114.580 C 17.795 114.727,17.600 115.287,17.600 115.824 C 17.600 116.361,17.420 116.800,17.200 116.800 C 16.980 116.800,16.800 117.160,16.800 117.600 C 16.800 118.040,16.658 118.400,16.485 118.400 C 16.312 118.400,16.140 118.802,16.103 119.294 C 16.066 119.786,15.848 120.251,15.618 120.327 C 15.388 120.404,15.200 120.812,15.200 121.233 C 15.200 121.655,15.020 122.000,14.800 122.000 C 14.580 122.000,14.400 122.324,14.400 122.720 C 14.400 123.614,13.506 125.593,13.100 125.597 C 12.935 125.599,12.800 125.791,12.800 126.024 C 12.800 126.257,12.986 126.332,13.214 126.192 C 13.441 126.051,13.262 126.535,12.815 127.268 C 12.368 128.001,12.002 128.915,12.001 129.300 C 12.001 129.685,11.820 130.000,11.600 130.000 C 11.380 130.000,11.200 130.362,11.200 130.805 C 11.200 131.248,11.041 131.923,10.847 132.305 C 9.739 134.483,9.018 136.964,9.162 138.100 C 9.210 138.485,9.059 138.800,8.825 138.800 C 8.591 138.800,8.400 139.430,8.400 140.200 C 8.400 140.970,8.220 141.600,8.000 141.600 C 7.780 141.600,7.600 142.129,7.600 142.776 C 7.600 143.423,7.420 144.064,7.200 144.200 C 6.980 144.336,6.800 144.876,6.800 145.400 C 6.800 145.924,6.639 146.452,6.442 146.574 C 6.245 146.695,5.982 147.471,5.858 148.297 C 5.328 151.807,5.092 152.820,4.756 153.027 C 4.560 153.148,4.400 153.856,4.400 154.600 C 4.400 155.344,4.220 156.064,4.000 156.200 C 3.780 156.336,3.600 157.236,3.600 158.200 C 3.600 159.164,3.420 160.064,3.200 160.200 C 2.980 160.336,2.800 161.301,2.800 162.344 C 2.800 163.387,2.637 164.411,2.437 164.620 C 2.094 164.979,1.859 166.511,1.370 171.600 C 1.254 172.810,1.056 174.070,0.931 174.400 C 0.034 176.767,-0.194 223.097,0.683 224.840 C 0.949 225.368,1.259 226.880,1.372 228.200 C 1.781 232.989,2.081 235.007,2.437 235.380 C 2.637 235.589,2.803 236.759,2.806 237.980 C 2.810 239.561,2.924 240.027,3.200 239.600 C 3.475 239.174,3.590 239.659,3.594 241.276 C 3.597 242.528,3.780 243.664,4.000 243.800 C 4.220 243.936,4.400 244.656,4.400 245.400 C 4.400 246.144,4.560 246.852,4.756 246.973 C 5.092 247.180,5.328 248.193,5.858 251.703 C 5.982 252.529,6.245 253.305,6.442 253.426 C 6.639 253.548,6.800 254.076,6.800 254.600 C 6.800 255.124,6.980 255.664,7.200 255.800 C 7.420 255.936,7.600 256.577,7.600 257.224 C 7.600 257.871,7.780 258.400,8.000 258.400 C 8.220 258.400,8.400 259.019,8.400 259.776 C 8.400 260.533,8.569 261.257,8.775 261.384 C 8.981 261.512,9.155 261.927,9.163 262.308 C 9.190 263.697,9.700 265.600,10.045 265.600 C 10.240 265.600,10.400 265.930,10.400 266.333 C 10.400 266.737,10.527 267.193,10.682 267.348 C 10.837 267.503,11.024 268.081,11.098 268.632 C 11.171 269.182,11.584 270.211,12.014 270.916 C 12.445 271.622,12.798 272.613,12.799 273.117 C 12.799 273.621,13.160 274.420,13.600 274.892 C 14.040 275.364,14.400 276.257,14.400 276.875 C 14.400 277.494,14.547 278.000,14.726 278.000 C 14.906 278.000,15.458 279.035,15.954 280.300 C 16.450 281.565,17.023 282.913,17.228 283.295 C 17.433 283.677,17.600 284.228,17.600 284.519 C 17.600 284.811,17.967 285.443,18.416 285.925 C 18.864 286.406,19.123 286.800,18.991 286.800 C 18.684 286.800,20.898 290.955,21.300 291.133 C 21.465 291.207,21.600 291.702,21.600 292.233 C 21.600 292.765,21.780 293.200,22.000 293.200 C 22.220 293.200,22.400 293.560,22.400 294.000 C 22.400 294.440,22.580 294.800,22.800 294.800 C 23.020 294.800,23.200 295.036,23.200 295.325 C 23.200 295.613,23.578 296.254,24.039 296.750 C 24.501 297.245,24.914 297.864,24.958 298.125 C 25.002 298.386,25.293 299.050,25.605 299.600 C 25.917 300.150,26.186 300.780,26.204 301.000 C 26.222 301.220,26.447 301.357,26.704 301.305 C 26.968 301.251,27.072 301.469,26.943 301.805 C 26.817 302.132,26.914 302.400,27.157 302.400 C 27.401 302.400,27.600 302.670,27.600 303.000 C 27.600 303.330,27.945 303.945,28.367 304.367 C 28.788 304.788,29.054 305.213,28.957 305.310 C 28.860 305.407,29.055 305.714,29.390 305.992 C 29.726 306.270,30.000 306.866,30.000 307.316 C 30.000 307.765,30.114 308.019,30.253 307.880 C 30.392 307.741,30.863 308.081,31.299 308.635 C 31.735 309.189,31.992 309.742,31.870 309.863 C 31.748 309.985,32.091 310.527,32.632 311.068 C 33.173 311.609,33.531 312.187,33.429 312.353 C 33.327 312.519,33.593 312.907,34.021 313.215 C 34.450 313.524,34.800 314.057,34.800 314.400 C 34.800 314.743,35.160 315.283,35.600 315.600 C 36.040 315.917,36.400 316.407,36.400 316.688 C 36.400 316.970,36.580 317.200,36.800 317.200 C 37.020 317.200,37.200 317.430,37.200 317.712 C 37.200 317.993,37.560 318.483,38.000 318.800 C 38.440 319.117,38.800 319.697,38.800 320.088 C 38.800 320.480,38.983 320.800,39.206 320.800 C 39.753 320.800,41.974 323.274,41.988 323.900 C 41.995 324.175,42.168 324.400,42.373 324.400 C 42.578 324.400,42.860 324.760,43.000 325.200 C 43.140 325.640,43.512 326.000,43.827 326.000 C 44.142 326.000,44.381 326.135,44.357 326.300 C 44.253 327.022,44.938 328.400,45.401 328.400 C 45.680 328.400,46.211 328.862,46.581 329.426 C 47.816 331.313,48.640 332.242,54.124 337.939 C 56.062 339.953,57.805 341.600,57.997 341.600 C 58.189 341.600,58.451 341.931,58.580 342.336 C 58.708 342.741,59.254 343.308,59.793 343.596 C 60.332 343.885,60.678 344.273,60.563 344.460 C 60.447 344.647,60.512 344.800,60.708 344.800 C 60.903 344.800,62.128 345.880,63.431 347.199 C 64.734 348.519,66.025 349.599,66.300 349.599 C 66.575 349.600,66.800 349.864,66.800 350.186 C 66.800 350.765,68.319 351.849,68.900 351.685 C 69.065 351.638,69.200 351.881,69.200 352.224 C 69.200 352.567,69.380 352.736,69.600 352.600 C 69.820 352.464,70.000 352.621,70.000 352.949 C 70.000 353.278,70.360 353.660,70.800 353.800 C 71.240 353.940,71.600 354.307,71.600 354.616 C 71.600 354.924,72.185 355.336,72.900 355.531 C 73.615 355.725,74.151 356.104,74.090 356.372 C 74.030 356.640,74.152 356.753,74.363 356.623 C 74.573 356.493,75.028 356.790,75.373 357.282 C 75.718 357.775,76.000 358.040,76.000 357.870 C 76.000 357.701,76.796 358.336,77.770 359.281 C 78.743 360.227,79.751 361.051,80.010 361.113 C 80.543 361.242,83.490 363.473,84.400 364.436 C 84.730 364.786,85.495 365.194,86.100 365.344 C 86.750 365.504,87.213 365.898,87.232 366.308 C 87.249 366.689,87.351 366.785,87.458 366.522 C 87.582 366.215,88.095 366.466,88.885 367.222 C 89.564 367.870,90.322 368.400,90.571 368.400 C 90.820 368.400,91.276 368.750,91.585 369.179 C 91.893 369.607,92.278 369.875,92.441 369.775 C 92.603 369.675,92.975 369.829,93.268 370.119 C 93.867 370.711,95.245 371.360,95.700 371.264 C 95.865 371.229,96.000 371.489,96.000 371.843 C 96.000 372.250,96.220 372.401,96.600 372.255 C 96.930 372.129,97.200 372.219,97.200 372.455 C 97.200 372.692,97.477 372.779,97.815 372.649 C 98.214 372.497,98.557 372.728,98.790 373.307 C 98.988 373.798,99.161 374.061,99.175 373.891 C 99.189 373.721,99.619 373.856,100.132 374.192 C 100.644 374.528,101.184 374.682,101.332 374.535 C 101.479 374.387,101.600 374.487,101.600 374.757 C 101.600 375.027,101.779 375.136,101.998 375.001 C 102.217 374.866,102.877 375.260,103.464 375.877 C 104.051 376.495,104.402 376.777,104.245 376.505 C 104.052 376.171,104.161 376.087,104.579 376.247 C 104.921 376.378,105.200 376.736,105.200 377.043 C 105.200 377.349,105.391 377.600,105.624 377.600 C 105.857 377.600,105.925 377.402,105.775 377.160 C 105.583 376.848,105.721 376.837,106.252 377.121 C 106.975 377.508,107.265 377.593,107.900 377.606 C 108.065 377.609,107.930 377.787,107.600 378.000 C 107.146 378.293,107.322 378.389,108.324 378.394 C 109.158 378.398,109.550 378.558,109.383 378.827 C 109.225 379.083,109.416 379.203,109.860 379.127 C 110.267 379.057,110.569 379.184,110.530 379.409 C 110.492 379.635,111.627 380.385,113.052 381.077 C 114.625 381.840,115.438 382.085,115.122 381.700 C 114.659 381.137,114.745 381.094,115.872 381.317 C 116.696 381.480,117.221 381.398,117.365 381.084 C 117.486 380.818,117.533 380.960,117.469 381.400 C 117.405 381.840,117.145 382.157,116.891 382.105 C 116.632 382.051,116.529 382.271,116.657 382.605 C 116.783 382.932,117.057 383.200,117.266 383.200 C 117.476 383.200,117.529 383.008,117.383 382.773 C 117.225 382.517,117.416 382.397,117.860 382.473 C 118.339 382.555,118.563 382.389,118.494 382.000 C 118.412 381.536,118.512 381.558,118.934 382.094 C 119.234 382.475,119.596 382.670,119.740 382.527 C 119.883 382.384,120.000 382.477,120.000 382.733 C 120.000 383.000,120.600 383.200,121.400 383.200 L 122.800 383.200 122.800 335.433 L 122.800 287.665 121.198 285.998 C 120.317 285.081,119.697 284.166,119.822 283.965 C 119.953 283.752,131.657 283.560,147.924 283.504 L 175.800 283.408 148.000 283.204 L 120.200 283.000 120.200 202.400 L 120.200 121.800 139.700 121.696 C 156.519 121.607,159.200 121.672,159.200 122.173 C 159.200 122.492,159.365 122.855,159.566 122.979 C 159.780 123.111,159.809 122.746,159.637 122.103 L 159.343 121.000 141.074 120.896 L 122.806 120.792 122.703 68.496 C 122.646 39.733,122.720 16.020,122.866 15.800 C 123.272 15.189,121.360 15.213,120.479 15.830 M209.600 116.648 C 207.070 116.944,204.010 117.377,202.800 117.610 C 201.590 117.843,200.013 118.136,199.296 118.261 C 198.579 118.386,197.894 118.649,197.773 118.844 C 197.652 119.040,197.034 119.200,196.400 119.200 C 195.766 119.200,195.136 119.380,195.000 119.600 C 194.864 119.820,194.401 120.000,193.971 120.000 C 193.541 120.000,192.877 120.159,192.495 120.353 C 192.113 120.548,191.350 120.885,190.800 121.103 C 188.102 122.171,185.296 123.505,182.945 124.838 C 182.205 125.257,180.930 125.979,180.112 126.443 C 176.872 128.277,172.431 131.747,171.206 133.400 C 170.533 134.310,170.871 134.073,173.498 131.796 C 178.181 127.738,187.530 122.627,194.200 120.480 C 198.059 119.238,200.422 118.648,206.000 117.535 C 209.555 116.825,225.701 116.820,229.200 117.528 C 236.025 118.908,239.149 119.822,243.800 121.799 C 252.059 125.310,260.268 131.493,265.307 138.000 C 265.903 138.770,266.393 139.272,266.396 139.116 C 266.402 138.709,262.875 134.413,261.423 133.059 C 260.750 132.431,259.480 131.250,258.600 130.434 C 253.805 125.987,244.064 120.789,236.800 118.800 C 235.810 118.529,234.550 118.166,234.000 117.994 C 228.616 116.310,217.655 115.705,209.600 116.648 M168.323 136.209 C 167.291 137.194,166.579 138.000,166.740 138.000 C 166.901 138.000,167.828 137.190,168.800 136.200 C 171.077 133.880,170.758 133.886,168.323 136.209 M277.256 162.800 C 277.256 163.130,277.411 163.760,277.600 164.200 C 277.817 164.704,277.944 164.778,277.944 164.400 C 277.944 164.070,277.789 163.440,277.600 163.000 C 277.383 162.496,277.256 162.422,277.256 162.800 M198.900 164.276 C 199.285 164.376,199.915 164.376,200.300 164.276 C 200.685 164.175,200.370 164.093,199.600 164.093 C 198.830 164.093,198.515 164.175,198.900 164.276 M184.400 171.000 C 183.428 171.990,182.723 172.800,182.833 172.800 C 182.943 172.800,183.828 171.990,184.800 171.000 C 185.772 170.010,186.477 169.200,186.367 169.200 C 186.257 169.200,185.372 170.010,184.400 171.000 M279.737 179.800 C 279.739 181.560,279.809 182.230,279.893 181.289 C 279.978 180.349,279.977 178.909,279.891 178.089 C 279.805 177.270,279.736 178.040,279.737 179.800 M279.999 233.600 L 279.800 283.000 252.102 283.103 L 224.403 283.205 224.299 234.703 L 224.195 186.200 224.198 234.800 L 224.200 283.400 252.112 283.503 C 274.229 283.584,280.063 283.501,280.214 283.103 C 280.320 282.826,280.359 260.460,280.302 233.400 L 280.198 184.200 279.999 233.600 M175.737 194.200 C 175.739 195.960,175.809 196.630,175.893 195.689 C 175.978 194.749,175.977 193.309,175.891 192.489 C 175.805 191.670,175.736 192.440,175.737 194.200 M175.793 241.600 C 175.793 264.370,175.841 273.685,175.900 262.300 C 175.959 250.915,175.959 232.285,175.900 220.900 C 175.841 209.515,175.793 218.830,175.793 241.600 M125.849 386.720 C 125.741 386.896,126.078 387.040,126.600 387.040 C 127.122 387.040,127.459 386.896,127.351 386.720 C 127.242 386.544,126.904 386.400,126.600 386.400 C 126.296 386.400,125.958 386.544,125.849 386.720 M130.133 388.133 C 130.133 388.427,130.373 388.667,130.667 388.667 C 130.960 388.667,131.200 388.427,131.200 388.133 C 131.200 387.840,130.960 387.600,130.667 387.600 C 130.373 387.600,130.133 387.840,130.133 388.133 " stroke="none" fill="#27c4f3" fill-rule="evenodd"></path><path id="path3" d="M160.400 123.395 C 160.400 123.734,160.579 124.323,160.799 124.705 C 161.351 125.668,165.143 133.871,165.881 135.700 C 166.649 137.601,166.794 137.585,169.030 135.349 L 170.881 133.498 167.341 129.889 C 165.393 127.905,163.035 125.493,162.100 124.530 C 161.061 123.459,160.400 123.018,160.400 123.395 M269.623 143.000 C 272.316 147.742,273.600 150.146,273.600 150.443 C 273.600 150.626,273.960 151.417,274.400 152.200 C 274.840 152.983,275.200 153.979,275.200 154.412 C 275.200 154.845,275.380 155.200,275.600 155.200 C 275.820 155.200,276.000 155.639,276.000 156.176 C 276.000 156.713,276.180 157.264,276.400 157.400 C 276.620 157.536,276.800 158.076,276.800 158.600 C 276.800 159.124,276.980 159.664,277.200 159.800 C 277.420 159.936,277.600 160.566,277.600 161.200 C 277.600 161.834,277.780 162.464,278.000 162.600 C 278.220 162.736,278.400 163.521,278.400 164.344 C 278.400 165.167,278.563 166.011,278.761 166.220 C 278.960 166.429,279.236 167.500,279.374 168.600 C 279.512 169.700,279.814 172.130,280.045 174.000 C 280.276 175.870,280.586 182.133,280.733 187.918 L 281.000 198.436 282.783 196.618 C 284.927 194.432,285.200 194.385,285.200 196.200 C 285.200 198.044,285.141 198.072,288.683 194.530 C 290.671 192.541,291.808 191.661,291.908 192.030 C 291.994 192.343,292.146 192.859,292.248 193.175 C 292.372 193.562,293.579 192.610,295.924 190.275 C 299.736 186.481,300.000 186.321,300.000 187.800 C 300.000 189.292,300.317 189.102,303.980 185.420 C 307.578 181.804,308.000 181.643,308.000 183.893 L 308.000 185.339 308.987 184.413 L 309.973 183.486 309.123 182.291 C 307.421 179.901,268.714 141.398,269.623 143.000 M197.737 164.992 C 191.632 166.100,187.824 168.123,183.930 172.329 C 181.727 174.709,178.400 180.530,178.400 182.006 C 178.400 182.417,178.240 182.852,178.044 182.973 C 177.849 183.094,177.571 183.869,177.429 184.696 C 177.286 185.523,176.973 187.370,176.733 188.800 C 175.964 193.381,175.831 272.238,176.593 271.606 C 177.117 271.171,177.200 271.300,177.200 272.551 C 177.200 274.586,177.369 274.493,182.110 269.842 C 186.455 265.581,186.800 265.384,186.800 267.164 C 186.800 268.026,189.052 265.945,200.502 254.498 C 215.277 239.728,214.800 240.138,214.800 242.200 C 214.800 244.168,214.916 244.099,219.719 239.281 L 224.025 234.962 223.856 211.181 C 223.698 188.871,223.484 184.157,222.453 180.200 C 222.223 179.320,221.916 178.102,221.770 177.494 C 221.624 176.886,221.346 176.290,221.152 176.170 C 220.959 176.051,220.800 175.684,220.800 175.354 C 220.800 174.446,217.862 170.313,216.145 168.805 C 211.973 165.142,204.938 163.685,197.737 164.992 M128.000 290.507 C 131.630 294.082,135.823 298.156,137.317 299.560 C 138.811 300.964,140.297 302.488,140.618 302.947 C 141.185 303.757,141.329 303.657,145.308 299.691 C 149.752 295.263,150.000 295.099,150.000 296.600 C 150.000 298.145,150.167 298.014,157.362 290.789 L 164.124 284.000 142.762 284.003 L 121.400 284.006 128.000 290.507 " stroke="none" fill="#047aa6" fill-rule="evenodd"></path><path id="path4" d="M159.739 122.586 C 159.883 122.960,160.013 123.476,160.028 123.733 C 160.044 123.990,160.211 123.840,160.400 123.400 C 160.589 122.960,160.756 122.825,160.772 123.100 C 160.787 123.375,160.991 123.600,161.224 123.600 C 161.827 123.600,161.306 122.885,160.317 122.356 C 159.599 121.971,159.516 122.004,159.739 122.586 M167.388 129.987 C 169.352 131.961,171.029 133.504,171.115 133.418 C 171.315 133.218,164.513 126.400,164.114 126.400 C 163.950 126.400,165.424 128.014,167.388 129.987 M389.505 134.273 C 389.408 134.453,389.574 135.050,389.873 135.600 L 390.418 136.600 390.291 135.515 C 390.153 134.337,389.784 133.754,389.505 134.273 M266.800 138.995 C 266.800 139.392,269.205 143.200,269.456 143.200 C 269.551 143.200,269.430 142.795,269.189 142.300 C 268.687 141.273,307.821 180.463,309.123 182.291 L 309.973 183.486 308.987 184.413 L 308.000 185.339 308.000 183.893 C 308.000 181.643,307.578 181.804,303.980 185.420 C 300.317 189.102,300.000 189.292,300.000 187.800 C 300.000 186.321,299.736 186.481,295.924 190.275 C 293.579 192.610,292.372 193.562,292.248 193.175 C 292.146 192.859,291.994 192.343,291.908 192.030 C 291.808 191.661,290.671 192.541,288.683 194.530 C 285.141 198.072,285.200 198.044,285.200 196.200 C 285.200 194.391,285.004 194.429,282.714 196.685 L 280.800 198.570 280.794 188.185 C 280.790 181.555,280.635 177.583,280.366 177.200 C 280.062 176.769,280.004 177.614,280.159 180.200 C 280.747 190.001,280.603 283.227,280.000 283.646 C 279.591 283.929,271.435 283.989,254.400 283.833 C 240.650 283.706,228.185 283.602,226.700 283.602 L 224.000 283.600 224.000 259.307 L 224.000 235.014 219.693 239.307 C 214.876 244.109,214.800 244.154,214.800 242.200 C 214.800 240.138,215.277 239.728,200.502 254.498 C 189.052 265.945,186.800 268.026,186.800 267.164 C 186.800 265.384,186.455 265.581,182.110 269.842 C 177.369 274.493,177.200 274.586,177.200 272.551 C 177.200 271.320,177.111 271.176,176.611 271.591 C 176.153 271.971,175.997 273.344,175.911 277.740 L 175.800 283.400 148.300 283.503 C 133.175 283.559,120.800 283.749,120.800 283.924 C 120.800 284.459,188.963 352.183,204.362 366.947 L 209.724 372.088 212.021 369.644 C 214.582 366.918,214.800 366.800,214.800 368.133 C 214.800 369.888,215.304 369.560,220.049 364.717 L 224.800 359.868 224.800 361.310 C 224.800 363.619,225.207 363.406,230.021 358.579 C 234.921 353.665,235.200 353.472,235.200 355.000 C 235.200 356.517,235.432 356.355,240.494 351.306 L 245.200 346.613 245.200 348.840 C 245.200 352.017,245.390 351.991,249.079 348.321 L 252.400 345.018 252.400 346.309 C 252.400 348.055,252.386 348.063,256.189 344.200 C 260.013 340.315,260.000 340.322,260.000 342.200 C 260.000 344.134,260.173 344.047,264.000 340.200 C 267.794 336.386,268.000 336.278,268.000 338.091 C 268.000 339.382,268.001 339.382,271.400 336.000 L 274.800 332.618 274.800 334.085 C 274.800 336.422,275.198 336.216,280.021 331.379 C 284.921 326.465,285.200 326.272,285.200 327.800 C 285.200 329.317,285.432 329.155,290.494 324.106 C 294.595 320.016,295.200 319.545,295.200 320.440 C 295.200 322.259,295.608 322.018,300.000 317.600 C 304.553 313.020,304.800 312.894,304.800 315.148 L 304.800 316.562 306.400 315.000 L 308.000 313.438 308.000 315.010 L 308.000 316.583 311.508 313.092 C 315.480 309.138,315.600 309.076,315.600 311.000 C 315.600 312.954,315.676 312.909,320.493 308.107 C 324.358 304.254,324.800 303.923,324.800 304.883 C 324.800 306.731,325.389 306.460,328.493 303.185 C 331.929 299.559,332.000 299.521,332.000 301.333 C 332.000 303.484,332.318 303.345,335.989 299.589 C 339.534 295.963,340.000 295.727,340.000 297.558 C 340.000 298.471,340.385 298.200,343.508 295.092 C 347.746 290.873,347.600 290.890,347.600 294.600 C 347.600 298.338,347.455 298.364,352.000 293.800 C 356.096 289.687,356.400 289.493,356.400 291.000 C 356.400 292.541,356.800 292.280,360.697 288.200 C 364.793 283.912,364.800 283.907,364.800 285.733 C 364.800 287.945,365.121 287.758,370.050 282.685 C 374.262 278.350,374.797 277.921,374.798 278.876 C 374.801 280.779,375.373 280.441,380.021 275.779 C 385.019 270.766,385.200 270.648,385.200 272.400 C 385.200 273.240,385.395 273.600,385.849 273.600 C 386.352 273.600,386.396 273.477,386.045 273.054 C 385.556 272.465,386.424 270.157,386.939 270.673 C 387.083 270.816,387.223 270.723,387.250 270.467 C 387.278 270.210,387.345 269.820,387.400 269.600 C 387.455 269.380,387.523 268.908,387.550 268.551 C 387.591 268.020,387.709 267.993,388.200 268.400 C 388.827 268.921,389.006 268.579,388.813 267.228 C 388.768 266.913,389.152 266.312,389.666 265.893 C 390.180 265.474,390.330 265.271,390.000 265.442 C 389.489 265.708,389.479 265.656,389.934 265.094 C 390.228 264.732,390.362 264.263,390.232 264.052 C 390.102 263.841,390.221 263.577,390.498 263.466 C 390.897 263.305,390.897 263.257,390.500 263.232 C 390.225 263.214,390.000 262.935,390.000 262.611 C 390.000 261.787,269.200 140.753,268.691 141.067 C 268.463 141.208,268.389 141.142,268.526 140.920 C 268.663 140.698,268.331 140.099,267.788 139.588 C 267.244 139.078,266.800 138.811,266.800 138.995 M271.000 146.000 C 271.341 146.660,271.711 147.200,271.821 147.200 C 271.931 147.200,271.741 146.660,271.400 146.000 C 271.059 145.340,270.689 144.800,270.579 144.800 C 270.469 144.800,270.659 145.340,271.000 146.000 M276.828 159.876 C 276.918 160.915,277.544 161.796,277.572 160.924 C 277.587 160.442,277.420 159.936,277.200 159.800 C 276.980 159.664,276.813 159.698,276.828 159.876 M277.640 162.876 C 277.759 164.446,278.320 165.416,278.360 164.124 C 278.382 163.422,278.220 162.736,278.000 162.600 C 277.780 162.464,277.618 162.588,277.640 162.876 M202.500 164.276 C 202.885 164.376,203.515 164.376,203.900 164.276 C 204.285 164.175,203.970 164.093,203.200 164.093 C 202.430 164.093,202.115 164.175,202.500 164.276 M195.200 165.206 C 194.778 165.482,195.015 165.523,196.000 165.342 C 197.725 165.025,198.051 164.798,196.767 164.806 C 196.235 164.809,195.530 164.989,195.200 165.206 M210.000 165.298 C 210.323 165.618,214.000 167.171,214.000 166.988 C 214.000 166.896,213.505 166.569,212.900 166.261 C 211.702 165.652,209.678 164.980,210.000 165.298 M278.628 167.461 C 278.997 169.503,279.200 169.655,279.200 167.890 C 279.200 167.097,279.009 166.329,278.774 166.184 C 278.485 166.005,278.438 166.412,278.628 167.461 M187.989 168.258 C 185.482 169.927,180.400 175.557,180.400 176.667 C 180.400 176.844,181.007 176.092,181.748 174.995 C 183.004 173.137,186.257 169.897,188.452 168.318 C 189.671 167.441,189.291 167.392,187.989 168.258 M217.210 169.763 C 217.986 170.663,219.035 172.075,219.543 172.900 C 220.050 173.725,220.551 174.400,220.655 174.400 C 221.110 174.400,219.250 171.723,217.600 170.003 C 216.207 168.550,216.119 168.496,217.210 169.763 M279.449 172.600 C 279.592 174.140,279.775 175.475,279.855 175.567 C 280.207 175.970,279.946 170.938,279.588 170.400 C 279.313 169.988,279.270 170.679,279.449 172.600 M222.446 180.000 C 222.427 180.550,222.587 181.270,222.800 181.600 C 223.294 182.364,223.294 181.542,222.800 180.000 L 222.480 179.000 222.446 180.000 M223.286 184.800 C 223.283 185.790,223.424 187.050,223.600 187.600 C 224.065 189.051,224.082 186.818,223.623 184.600 L 223.292 183.000 223.286 184.800 M177.246 184.467 C 177.221 184.834,177.096 185.464,176.970 185.867 C 176.752 186.562,176.763 186.563,177.197 185.887 C 177.448 185.496,177.573 184.866,177.473 184.487 C 177.311 183.868,177.288 183.866,177.246 184.467 M176.246 189.947 C 176.089 191.127,176.046 192.179,176.150 192.283 C 176.417 192.550,176.922 188.964,176.707 188.325 C 176.611 188.036,176.403 188.766,176.246 189.947 M386.744 271.566 C 386.225 271.987,385.934 272.465,386.097 272.630 C 386.261 272.794,386.756 272.512,387.197 272.003 C 388.448 270.561,388.236 270.357,386.744 271.566 M157.362 290.789 C 150.167 298.014,150.000 298.145,150.000 296.600 C 150.000 295.099,149.752 295.263,145.308 299.691 C 141.329 303.657,141.185 303.757,140.618 302.947 C 140.297 302.488,138.811 300.964,137.317 299.560 C 135.823 298.156,131.630 294.082,128.000 290.507 L 121.400 284.006 142.762 284.003 L 164.124 284.000 157.362 290.789 " stroke="none" fill="#0489bd" fill-rule="evenodd"></path></g></svg>